#!OML:ASF H:\Terrain\Patient Classification 1\Walking\liu\liu.ASF
:FULLY-SPECIFIED
:DEGREES
341
root 10.1956 16.8115 15.1598 5.55722 8.87872 -0.723667
lowerback -7.51868 -3.34555 -3.20476
upperback -1.21464 -4.30994 3.28611
thorax 3.44302 -2.20537 4.75661
lowerneck -21.1564 -5.36675 -13.9866
upperneck 20.6374 -6.37172 13.5035
head 11.0953 -2.43377 6.31414
rclavicle 1.96455e-014 5.56597e-015
rhumerus -45.4967 4.67796 -82.6036
rradius 26.5783
rwrist -9.27462
rhand -11.0835 -36.1483
rfingers 7.12502
rthumb 14.9401 -65.5894
lclavicle 1.96455e-014 5.56597e-015
lhumerus -38.5428 -7.07005 94.2379
lradius 19.7039
lwrist -6.05449
lhand -6.09726 -19.2024
lfingers 7.12502
lthumb 19.7389 9.81536
rfemur -32.499 2.03212 24.2941
rtibia 38.3217
rfoot -11.8901 -4.07394
rtoes -13.9117
lfemur 8.72358 7.45221 -12.9406
ltibia 35.6202
lfoot 10.95 -8.37086
ltoes -14.6776
342
root 10.1695 16.8533 15.2985 5.57713 9.04564 -1.32032
lowerback -7.30972 -3.20484 -2.73839
upperback -1.21904 -4.16792 3.44373
thorax 3.28505 -2.12715 4.68585
lowerneck -21.5381 -5.59735 -14.0422
upperneck 20.8597 -6.64603 13.4845
head 11.298 -2.55307 6.28053
rclavicle -3.68683e-014 2.46493e-014
rhumerus -45.1551 4.70559 -82.6809
rradius 26.9624
rwrist -9.87608
rhand -16.0439 -34.2253
rfingers 7.12502
rthumb 10.1578 -63.9601
lclavicle -3.68683e-014 2.46493e-014
lhumerus -38.7383 -6.67442 93.952
lradius 19.4724
lwrist -7.15439
lhand -5.66699 -18.7987
lfingers 7.12502
lthumb 20.1525 10.176
rfemur -31.7496 2.21886 25.1154
rtibia 37.5674
rfoot -11.9041 -4.45531
rtoes -13.1933
lfemur 6.34744 7.29323 -12.2037
ltibia 39.6822
lfoot 11.4741 -7.97496
ltoes -15.235
343
root 10.1394 16.8761 15.4028 5.56762 9.18612 -2.01246
lowerback -6.70337 -3.05888 -2.16494
upperback -1.32419 -4.02452 3.60952
thorax 2.79535 -2.0412 4.58426
lowerneck -21.7622 -5.75731 -14.2164
upperneck 21.0285 -6.86979 13.74
head 11.4604 -2.63219 6.38161
rclavicle 1.07219e-014 2.46493e-014
rhumerus -45.1989 5.28262 -83.1028
rradius 27.9952
rwrist -10.922
rhand -25.0532 -29.7515
rfingers 7.12502
rthumb 1.46017 -59.7263
lclavicle 1.07219e-014 2.46493e-014
lhumerus -38.9192 -6.50773 93.6667
lradius 19.3258
lwrist -7.93796
lhand -4.71981 -18.4538
lfingers 7.12502
lthumb 21.0626 10.4223
rfemur -31.1571 2.72122 25.9742
rtibia 36.9489
rfoot -12.1006 -4.93505
rtoes -13.2588
lfemur 3.87806 7.15442 -11.3647
ltibia 43.5274
lfoot 12.1627 -7.17333
ltoes -11.5232
344
root 10.1102 16.8778 15.4855 5.54713 9.18237 -2.37953
lowerback -5.90271 -2.90907 -1.93205
upperback -1.51139 -3.84177 3.71539
thorax 2.1292 -1.93612 4.62517
lowerneck -21.7678 -5.86228 -14.2901
upperneck 21.1023 -7.02466 13.825
head 11.5227 -2.6985 6.40469
rclavicle -1.3039e-014 1.11319e-014
rhumerus -45.4838 5.86573 -83.4
rradius 29.2318
rwrist -11.9898
rhand -30.0605 -25.7786
rfingers 7.12502
rthumb -3.3759 -55.7316
lclavicle -1.3039e-014 1.11319e-014
lhumerus -39.4235 -7.03996 93.9152
lradius 19.4297
lwrist -7.66367
lhand -3.94711 -17.8797
lfingers 7.12502
lthumb 21.8047 10.9119
rfemur -30.7294 3.23433 26.4945
rtibia 36.5634
rfoot -12.2819 -5.32307
rtoes -13.8092
lfemur 1.56237 7.12938 -10.9241
ltibia 46.9505
lfoot 12.7955 -6.01526
ltoes -8.4925
345
root 10.0941 16.8954 15.6162 5.47625 8.99771 -2.06724
lowerback -5.62399 -2.81549 -2.38793
upperback -1.51372 -3.69058 3.63373
thorax 1.97966 -1.86051 4.82414
lowerneck -21.7487 -5.90358 -14.0841
upperneck 21.189 -7.10483 13.5978
head 11.546 -2.74481 6.26814
rclavicle 1.16413e-014 -3.97569e-014
rhumerus -45.4955 6.38005 -83.5431
rradius 30.1182
rwrist -12.5874
rhand -29.6608 -27.0713
rfingers 7.12502
rthumb -2.98989 -57.03
lclavicle 1.16413e-014 -3.97569e-014
lhumerus -40.0372 -7.82216 94.3544
lradius 19.6627
lwrist -6.72929
lhand -3.53455 -17.4509
lfingers 7.12502
lthumb 22.2009 11.2942
rfemur -29.9687 3.51797 26.2752
rtibia 36.35
rfoot -12.7493 -5.30418
rtoes -13.5017
lfemur -0.0149682 7.23558 -11.3215
ltibia 49.7867
lfoot 12.8305 -4.34702
ltoes -8.05292
346
root 10.0972 16.935 15.7898 5.35852 9.10196 -1.55911
lowerback -5.83566 -2.73548 -2.81309
upperback -1.24765 -3.55503 3.37047
thorax 2.36758 -1.80591 4.78489
lowerneck -21.6464 -5.93796 -13.8284
upperneck 20.8857 -7.22466 13.595
head 11.4219 -2.78031 6.18774
rclavicle 3.09918e-014 3.18055e-015
rhumerus -45.1486 6.87853 -83.8485
rradius 30.8522
rwrist -13.444
rhand -28.8932 -29.1398
rfingers 7.12502
rthumb -2.24856 -59.1077
lclavicle 3.09918e-014 3.18055e-015
lhumerus -40.2995 -8.96235 94.7115
lradius 19.879
lwrist -5.69515
lhand -2.92777 -17.3686
lfingers 7.12502
lthumb 22.7833 11.306
rfemur -28.822 3.09018 25.8661
rtibia 36.1327
rfoot -13.3832 -4.85394
rtoes -12.4774
lfemur -1.07627 7.06117 -12.0207
ltibia 52.0762
lfoot 10.9293 -2.4383
ltoes -12.1128
347
root 10.1039 16.9768 15.95 5.4135 9.4159 -1.42354
lowerback -6.10863 -2.63314 -2.73425
upperback -1.05558 -3.41732 3.20156
thorax 2.68921 -1.7444 4.5599
lowerneck -21.2741 -5.99943 -14.138
upperneck 20.121 -7.3704 14.3168
head 11.1399 -2.80097 6.4669
rclavicle 2.18415e-014 -9.54166e-015
rhumerus -44.7854 7.36445 -84.0952
rradius 31.6217
rwrist -14.5322
rhand -28.7369 -29.0627
rfingers 7.12502
rthumb -2.09765 -59.0321
lclavicle 2.18415e-014 -9.54166e-015
lhumerus -40.4763 -9.66737 94.8283
lradius 20.1492
lwrist -5.4323
lhand -2.46596 -17.5686
lfingers 7.12502
lthumb 23.2264 11.0508
rfemur -27.9288 2.37339 25.8674
rtibia 35.8362
rfoot -13.833 -4.31438
rtoes -10.9867
lfemur -2.47282 6.7189 -12.3802
ltibia 54.1082
lfoot 10.1824 -0.321958
ltoes -9.92413
